<?xml version="1.0" encoding="utf-8"?>
<!-- Generator: Adobe Illustrator 23.1.0, SVG Export Plug-In . SVG Version: 6.00 Build 0)  -->
<svg version="1.0" id="Слой_1" xmlns="http://www.w3.org/2000/svg" xmlns:xlink="http://www.w3.org/1999/xlink" x="0px" y="0px"
	 viewBox="0 0 65.75 20.27" style="enable-background:new 0 0 65.75 20.27;" xml:space="preserve">
<style type="text/css">
	.st0{fill:url(#SVGID_1_);}
	.st1{fill:url(#SVGID_2_);}
	.st2{fill:url(#SVGID_3_);}
	.st3{fill:url(#SVGID_4_);}
	.st4{fill:url(#SVGID_5_);}
	.st5{fill:url(#SVGID_6_);}
	.st6{fill:url(#SVGID_7_);}
	.st7{fill:url(#SVGID_8_);}
	.st8{fill:url(#SVGID_9_);}
	.st9{fill:#29ABE2;}
	.st10{stroke:#000000;stroke-width:0.25;stroke-miterlimit:10;}
	.st11{fill:#FF0000;}
</style>
<g>
	<path d="M51.55,11.7l0.21-0.14c-0.03,0.37-0.05,0.7-0.05,0.99c0.44-0.4,0.75-0.67,0.93-0.8c0.17-0.13,0.47-0.2,0.9-0.2
		c0.27,0,0.51,0.04,0.73,0.11c0.22,0.07,0.42,0.19,0.61,0.36c0.19,0.17,0.33,0.38,0.44,0.63c0.11,0.25,0.16,0.54,0.16,0.88
		c0,0.23-0.04,0.47-0.11,0.71s-0.17,0.46-0.3,0.67c-0.12,0.21-0.22,0.34-0.29,0.41c-0.07,0.07-0.22,0.17-0.45,0.3
		c-0.21,0.12-0.41,0.26-0.61,0.4c-0.14,0.1-0.24,0.17-0.29,0.2s-0.15,0.06-0.28,0.09s-0.27,0.04-0.42,0.04
		c-0.34,0-0.68-0.09-1.01-0.26v1.04c0,0.07,0.01,0.3,0.02,0.69c0.01,0.39,0.03,0.62,0.04,0.68c0.02,0.07,0.04,0.11,0.07,0.14
		s0.07,0.05,0.11,0.06c0.04,0.01,0.22,0.02,0.53,0.04l0.04,0.04v0.21l-0.04,0.04c-0.41-0.03-0.8-0.04-1.17-0.04
		s-0.76,0.01-1.17,0.04l-0.04-0.04v-0.21l0.04-0.04c0.31-0.02,0.49-0.03,0.53-0.04s0.08-0.03,0.11-0.06
		c0.03-0.03,0.05-0.08,0.06-0.15c0.01-0.07,0.02-0.29,0.04-0.65c0.01-0.37,0.02-0.64,0.02-0.83v-3.74c0-0.17-0.01-0.37-0.02-0.59
		c-0.02-0.22-0.03-0.35-0.04-0.39s-0.03-0.07-0.07-0.09c-0.04-0.02-0.12-0.03-0.25-0.03l-0.41,0l-0.04-0.04V11.9v-0.2
		C50.68,11.62,51.13,11.87,51.55,11.7z M51.71,15.24c0.15,0.15,0.33,0.29,0.56,0.4c0.22,0.11,0.47,0.17,0.73,0.17
		c0.32,0,0.59-0.08,0.84-0.24c0.24-0.16,0.43-0.39,0.56-0.7c0.13-0.31,0.2-0.65,0.2-1.02c0-0.3-0.06-0.58-0.18-0.84
		c-0.12-0.26-0.3-0.47-0.55-0.62c-0.25-0.15-0.51-0.22-0.79-0.22c-0.17,0-0.34,0.03-0.5,0.09c-0.16,0.06-0.32,0.15-0.46,0.27
		c-0.14,0.12-0.24,0.23-0.31,0.33c-0.06,0.11-0.09,0.19-0.1,0.26c0,0.07,0,0.15,0,0.23V15.24z"/>
	<path d="M57.46,11.81l0.09,0.06c-0.02,0.19-0.03,0.52-0.04,1.01l0.37-0.46c0.12-0.15,0.23-0.27,0.32-0.35
		c0.09-0.08,0.2-0.15,0.33-0.19s0.25-0.07,0.38-0.07c0.14,0,0.28,0.07,0.41,0.13l0.32,0.23c-0.14,0.13-0.2,0.34-0.49,0.79l-0.3-0.07
		c-0.23-0.24-0.22-0.18-0.44-0.23c-0.2-0.05-0.38,0.06-0.53,0.19c-0.15,0.13-0.25,0.29-0.3,0.48c-0.05,0.19-0.08,0.44-0.08,0.73
		v0.54c0,0.1,0.01,0.34,0.02,0.72s0.03,0.6,0.04,0.66c0.02,0.06,0.04,0.1,0.07,0.13c0.03,0.03,0.07,0.05,0.12,0.06
		c0.05,0.01,0.28,0.03,0.7,0.05l0.04,0.04v0.21l-0.04,0.04c-0.43-0.03-0.89-0.04-1.36-0.04c-0.37,0-0.76,0.01-1.17,0.04l-0.04-0.04
		v-0.21l0.04-0.04c0.32-0.02,0.49-0.03,0.54-0.04c0.04-0.01,0.08-0.03,0.11-0.06c0.03-0.03,0.05-0.08,0.06-0.14
		c0.01-0.06,0.03-0.27,0.04-0.63c0.02-0.36,0.02-0.63,0.02-0.81v-0.96c0-0.13-0.01-0.31-0.02-0.53s-0.02-0.36-0.03-0.42
		c-0.01-0.05-0.03-0.09-0.08-0.11c-0.04-0.03-0.13-0.04-0.25-0.04l-0.41,0l-0.04-0.04v-0.21l0.04-0.04
		C56.51,12.1,57.03,11.98,57.46,11.81z"/>
	<path d="M59.36,14.41c0-0.39,0.08-0.76,0.24-1.12c0.16-0.36,0.44-0.67,0.83-0.93c0.39-0.26,0.86-0.39,1.41-0.39
		c0.68,0,1.24,0.22,1.67,0.65c0.43,0.43,0.64,0.99,0.64,1.66c0,0.75-0.25,1.36-0.74,1.84c-0.49,0.48-1.09,0.72-1.78,0.72
		c-0.46,0-0.86-0.12-1.22-0.37c-0.36-0.25-0.62-0.55-0.79-0.9C59.44,15.22,59.36,14.83,59.36,14.41z M60.28,14.08
		c0,0.46,0.06,0.86,0.18,1.22c0.12,0.36,0.3,0.65,0.56,0.87c0.25,0.22,0.54,0.33,0.87,0.33c0.38,0,0.7-0.15,0.95-0.46
		c0.25-0.3,0.38-0.76,0.38-1.37c0-0.69-0.14-1.26-0.41-1.7c-0.27-0.44-0.66-0.66-1.17-0.66c-0.42,0-0.75,0.15-0.99,0.46
		S60.28,13.5,60.28,14.08z"/>
</g>
<g>
	<g>
		
			<radialGradient id="SVGID_1_" cx="28.9961" cy="8.312" r="36.5737" gradientTransform="matrix(1 0 0 1.4373 0 -3.6349)" gradientUnits="userSpaceOnUse">
			<stop  offset="0" style="stop-color:#FFFFFF"/>
			<stop  offset="0.9629" style="stop-color:#000000"/>
		</radialGradient>
		<path class="st0" d="M3.48,11.66L2.69,9.03C2.54,8.54,2.4,8.08,2.26,7.66S2.03,6.97,1.99,6.86s-0.09-0.2-0.14-0.25
			S1.74,6.52,1.68,6.5s-0.22-0.04-0.5-0.08L1.14,6.38V6.14l0.05-0.05C1.47,6.11,1.91,6.13,2.5,6.13c0.64,0,1.12-0.01,1.44-0.04
			l0.05,0.05v0.24L3.95,6.42c-0.43,0-0.68,0.03-0.76,0.07S3.07,6.6,3.07,6.69s0.06,0.33,0.17,0.72L3.78,9.3
			c0.09,0.29,0.2,0.63,0.33,1.03c0.11-0.25,0.25-0.59,0.45-1.02l0.86-1.93C5.62,6.92,5.81,6.46,5.99,6h0.29L6.8,7.42l0.67,1.7
			L8,10.4l0.44-1.15C8.69,8.59,8.89,8.04,9.03,7.6s0.21-0.72,0.21-0.85S9.2,6.54,9.11,6.5S8.8,6.44,8.42,6.42L8.37,6.38V6.13
			l0.05-0.05c0.45,0.03,0.83,0.04,1.14,0.04c0.39,0,0.76-0.01,1.1-0.04l0.05,0.05v0.24l-0.05,0.05c-0.21,0.01-0.35,0.03-0.43,0.07
			s-0.16,0.13-0.26,0.28S9.74,7.24,9.54,7.7L8.96,9.07L8.7,9.73l-0.42,1.09C8.15,11.16,8.06,11.44,8,11.66H7.45l-0.28-0.73
			L5.83,7.57L5.27,8.78l-0.65,1.45l-0.57,1.42H3.48z"/>
		
			<radialGradient id="SVGID_2_" cx="28.9961" cy="8.312" r="36.5737" gradientTransform="matrix(1 0 0 1.4373 0 -3.6349)" gradientUnits="userSpaceOnUse">
			<stop  offset="0" style="stop-color:#FFFFFF"/>
			<stop  offset="0.9629" style="stop-color:#000000"/>
		</radialGradient>
		<path class="st1" d="M11.83,4.09l0.64-0.76c0.38-0.43,0.9-0.66,1.57-0.66c1.18,0,1.92,0.81,1.92,1.78c0,0.39-0.14,0.74-0.38,1.02
			c-0.21,0.21-0.69,0.62-1.01,0.84c1.15,0.24,2.03,1.06,2.03,2.09c0,2.23-2.58,3.31-3.54,3.31c-0.56,0-1.06-0.28-1.2-0.41
			c-0.17-0.17-0.25-0.29-0.25-0.45c0-0.21,0.15-0.36,0.28-0.45c0.08-0.06,0.17-0.06,0.25,0c0.34,0.35,0.91,0.73,1.65,0.73
			c0.97,0,1.81-0.6,1.81-2.23c0-1.48-1.08-1.93-1.88-1.93c-0.32,0-0.64,0.07-0.83,0.14l-0.06-0.21C14.31,6.43,15,5.9,15,4.82
			c0-0.95-0.63-1.44-1.39-1.44c-0.78,0-1.19,0.36-1.64,0.88L11.83,4.09z"/>
		
			<radialGradient id="SVGID_3_" cx="28.9961" cy="8.312" r="36.5737" gradientTransform="matrix(1 0 0 1.4373 0 -3.6349)" gradientUnits="userSpaceOnUse">
			<stop  offset="0" style="stop-color:#FFFFFF"/>
			<stop  offset="0.9629" style="stop-color:#000000"/>
		</radialGradient>
		<path class="st2" d="M17.94,9.82h0.25l0.05,0.05c0.01,0.33,0.03,0.61,0.06,0.84c0.12,0.18,0.33,0.33,0.63,0.45
			s0.59,0.17,0.88,0.17c0.41,0,0.75-0.11,0.99-0.33s0.37-0.49,0.37-0.8c0-0.17-0.04-0.31-0.14-0.44c-0.09-0.12-0.23-0.22-0.41-0.3
			s-0.51-0.17-0.98-0.28c-0.4-0.09-0.68-0.17-0.84-0.22S18.5,8.82,18.35,8.7s-0.26-0.28-0.34-0.46s-0.12-0.38-0.12-0.6
			c0-0.52,0.21-0.94,0.62-1.26s0.93-0.47,1.56-0.47c0.26,0,0.55,0.04,0.86,0.11c0.31,0.07,0.54,0.14,0.7,0.21l0.05,0.08
			c-0.03,0.16-0.05,0.57-0.06,1.23l-0.05,0.05h-0.23l-0.05-0.05c-0.02-0.24-0.04-0.41-0.06-0.5s-0.1-0.2-0.21-0.31
			c-0.11-0.11-0.27-0.21-0.48-0.28s-0.43-0.11-0.66-0.11c-0.24,0-0.44,0.04-0.6,0.11s-0.29,0.18-0.39,0.32s-0.15,0.32-0.15,0.52
			c0,0.15,0.03,0.28,0.09,0.4s0.15,0.21,0.28,0.28s0.26,0.12,0.39,0.16l0.64,0.16c0.55,0.13,0.94,0.25,1.17,0.35
			s0.42,0.25,0.55,0.44s0.19,0.44,0.19,0.72c0,0.54-0.22,1-0.67,1.39c-0.45,0.39-1.02,0.58-1.72,0.58c-0.25,0-0.55-0.03-0.92-0.08
			s-0.68-0.12-0.93-0.18l-0.03-0.08l0.06-0.39c0.02-0.12,0.03-0.24,0.04-0.37s0.01-0.38,0.01-0.78L17.94,9.82z"/>
		
			<radialGradient id="SVGID_4_" cx="28.9961" cy="8.312" r="36.5737" gradientTransform="matrix(1 0 0 1.4373 0 -3.6349)" gradientUnits="userSpaceOnUse">
			<stop  offset="0" style="stop-color:#FFFFFF"/>
			<stop  offset="0.9629" style="stop-color:#000000"/>
		</radialGradient>
		<path class="st3" d="M22.7,6.95V6.79l0.04-0.06c0.37-0.14,0.66-0.26,0.89-0.38c0-1.02-0.01-1.61-0.04-1.78
			c0.4-0.14,0.73-0.29,0.99-0.45l0.14,0.12c-0.04,0.25-0.09,0.96-0.14,2.14c0.2,0,0.41,0.01,0.63,0.01c0.46,0,0.79-0.01,0.99-0.04
			l0.04,0.04l-0.11,0.49l-0.05,0.05c-0.2,0-0.42-0.01-0.66-0.01c-0.22,0-0.5,0-0.84,0.01l-0.04,2.38c0,0.55,0.01,0.91,0.04,1.08
			s0.1,0.3,0.21,0.4s0.29,0.14,0.51,0.14c0.26,0,0.5-0.07,0.73-0.21l0.14,0.21c-0.09,0.07-0.32,0.26-0.67,0.59
			c-0.2,0.09-0.41,0.14-0.62,0.14c-0.88,0-1.32-0.43-1.32-1.28c0-0.31,0.01-0.58,0.02-0.8c0-0.07,0.01-0.13,0.01-0.21V6.97h-0.24
			c-0.18,0-0.38,0.01-0.6,0.02L22.7,6.95z"/>
		
			<radialGradient id="SVGID_5_" cx="28.9961" cy="8.312" r="36.5737" gradientTransform="matrix(1 0 0 1.4373 0 -3.6349)" gradientUnits="userSpaceOnUse">
			<stop  offset="0" style="stop-color:#FFFFFF"/>
			<stop  offset="0.9629" style="stop-color:#000000"/>
		</radialGradient>
		<path class="st4" d="M28.37,5.96l0.11,0.08c-0.04,0.51-0.06,1.16-0.06,1.95v1.37c0,0.5,0.04,0.85,0.11,1.04s0.21,0.34,0.4,0.45
			S29.34,11,29.6,11c0.29,0,0.54-0.06,0.78-0.17s0.43-0.27,0.59-0.47s0.25-0.34,0.27-0.41s0.04-0.27,0.05-0.59L31.3,8.7V8.07
			c0-0.16-0.01-0.37-0.02-0.64S31.25,7,31.24,6.93S31.2,6.83,31.15,6.8S31,6.75,30.85,6.75l-0.49-0.01L30.3,6.7V6.45l0.05-0.05
			c0.75-0.09,1.38-0.24,1.89-0.44l0.11,0.08c-0.04,0.51-0.06,1.16-0.06,1.95v1.03c0,0.06,0.01,0.54,0.03,1.44
			c0.01,0.33,0.03,0.53,0.06,0.61s0.08,0.12,0.14,0.15s0.23,0.04,0.52,0.04h0.16l0.05,0.05v0.23l-0.05,0.05
			c-0.55-0.03-0.92-0.05-1.11-0.05c-0.24,0-0.51,0.01-0.83,0.04l-0.05-0.05c0.02-0.4,0.04-0.74,0.05-1.01
			c-0.25,0.19-0.53,0.45-0.84,0.77c-0.12,0.12-0.29,0.22-0.52,0.3s-0.48,0.12-0.77,0.12c-0.44,0-0.78-0.07-1.02-0.21
			s-0.42-0.33-0.52-0.57s-0.15-0.67-0.15-1.26l0.01-0.46V8.07c0-0.16-0.01-0.37-0.02-0.64S27.39,7,27.38,6.93s-0.04-0.11-0.09-0.14
			s-0.15-0.04-0.3-0.04l-0.49-0.01L26.44,6.7V6.45l0.05-0.05C27.23,6.31,27.86,6.17,28.37,5.96z"/>
		
			<radialGradient id="SVGID_6_" cx="28.9961" cy="8.312" r="36.5737" gradientTransform="matrix(1 0 0 1.4373 0 -3.6349)" gradientUnits="userSpaceOnUse">
			<stop  offset="0" style="stop-color:#FFFFFF"/>
			<stop  offset="0.9629" style="stop-color:#000000"/>
		</radialGradient>
		<path class="st5" d="M37.53,3.6V3.35l0.05-0.05c0.75-0.09,1.38-0.23,1.89-0.43l0.11,0.07c-0.04,0.45-0.06,1.35-0.06,2.7v3.84
			c0,0.39,0.01,0.74,0.02,1.03s0.04,0.47,0.07,0.52s0.09,0.1,0.17,0.13s0.31,0.07,0.68,0.1l0.05,0.05v0.22l-0.05,0.05
			c-0.42-0.03-0.75-0.04-0.98-0.04c-0.21,0-0.51,0.01-0.9,0.04l-0.06-0.06c0.01-0.38,0.02-0.65,0.02-0.8c0-0.02,0-0.09,0.01-0.22
			c-0.21,0.16-0.43,0.33-0.64,0.52c-0.32,0.28-0.52,0.46-0.62,0.53c-0.18,0.09-0.44,0.13-0.77,0.13c-0.54,0-1-0.13-1.37-0.4
			s-0.65-0.6-0.81-1.02S34.07,9.44,34.07,9c0-0.44,0.08-0.87,0.25-1.27s0.4-0.71,0.71-0.89s0.64-0.38,1-0.58s0.72-0.3,1.08-0.3
			c0.5,0,0.97,0.12,1.42,0.37L38.5,5.01c-0.01-0.45-0.02-0.77-0.04-0.95c-0.02-0.18-0.04-0.28-0.06-0.32s-0.06-0.06-0.12-0.07
			S38,3.65,37.58,3.65L37.53,3.6z M38.53,7.32c-0.24-0.27-0.51-0.48-0.81-0.63s-0.59-0.22-0.89-0.22c-0.33,0-0.63,0.09-0.92,0.27
			s-0.49,0.44-0.61,0.79s-0.19,0.73-0.19,1.14c0,0.68,0.17,1.23,0.52,1.65s0.78,0.62,1.3,0.62c0.29,0,0.54-0.07,0.76-0.2
			s0.4-0.31,0.54-0.53s0.23-0.45,0.25-0.67s0.04-0.63,0.04-1.22V7.32z"/>
		
			<radialGradient id="SVGID_7_" cx="28.9961" cy="8.312" r="36.5737" gradientTransform="matrix(1 0 0 1.4373 0 -3.6349)" gradientUnits="userSpaceOnUse">
			<stop  offset="0" style="stop-color:#FFFFFF"/>
			<stop  offset="0.9629" style="stop-color:#000000"/>
		</radialGradient>
		<path class="st6" d="M43.1,5.96l0.11,0.08c-0.04,0.51-0.06,1.16-0.06,1.95v1.32c0,0.09,0.01,0.36,0.02,0.83s0.03,0.74,0.05,0.82
			s0.04,0.13,0.08,0.17s0.08,0.06,0.13,0.07s0.26,0.03,0.63,0.05l0.05,0.05v0.25l-0.05,0.05c-0.49-0.03-0.96-0.05-1.41-0.05
			c-0.45,0-0.92,0.02-1.41,0.05l-0.05-0.05v-0.25l0.05-0.05c0.38-0.02,0.59-0.04,0.64-0.05s0.09-0.04,0.13-0.07s0.06-0.09,0.08-0.17
			s0.03-0.33,0.05-0.76s0.03-0.75,0.03-0.97V8.07c0-0.16-0.01-0.37-0.02-0.64S42.11,7,42.11,6.93s-0.04-0.11-0.09-0.14
			s-0.15-0.04-0.3-0.04l-0.49-0.01L41.16,6.7V6.45l0.05-0.05C41.96,6.31,42.59,6.17,43.1,5.96z M42.6,3.34
			c0.18,0,0.34,0.06,0.47,0.19S43.26,3.82,43.26,4c0,0.18-0.06,0.33-0.19,0.46s-0.29,0.19-0.47,0.19c-0.18,0-0.33-0.06-0.47-0.19
			s-0.2-0.28-0.2-0.47c0-0.18,0.07-0.34,0.2-0.47S42.42,3.34,42.6,3.34z"/>
		
			<radialGradient id="SVGID_8_" cx="28.9961" cy="8.312" r="36.5737" gradientTransform="matrix(1 0 0 1.4373 0 -3.6349)" gradientUnits="userSpaceOnUse">
			<stop  offset="0" style="stop-color:#FFFFFF"/>
			<stop  offset="0.9629" style="stop-color:#000000"/>
		</radialGradient>
		<path class="st7" d="M44.8,8.86c0-0.46,0.1-0.91,0.29-1.34s0.52-0.8,1-1.12s1.04-0.47,1.69-0.47c0.82,0,1.49,0.26,2,0.78
			s0.77,1.18,0.77,2c0,0.89-0.3,1.63-0.89,2.21s-1.31,0.87-2.14,0.87c-0.55,0-1.04-0.15-1.46-0.44s-0.75-0.66-0.95-1.08
			S44.8,9.36,44.8,8.86z M45.91,8.46c0,0.55,0.07,1.04,0.21,1.47s0.36,0.78,0.67,1.04s0.65,0.39,1.04,0.39
			c0.46,0,0.84-0.18,1.14-0.55s0.45-0.92,0.45-1.65c0-0.83-0.16-1.51-0.49-2.04s-0.8-0.8-1.41-0.8c-0.51,0-0.9,0.18-1.19,0.55
			S45.91,7.77,45.91,8.46z"/>
		
			<radialGradient id="SVGID_9_" cx="28.9961" cy="8.312" r="36.5737" gradientTransform="matrix(1 0 0 1.4373 0 -3.6349)" gradientUnits="userSpaceOnUse">
			<stop  offset="0" style="stop-color:#FFFFFF"/>
			<stop  offset="0.9629" style="stop-color:#000000"/>
		</radialGradient>
		<path class="st8" d="M50.57,11.03c0-0.37,0.25-0.63,0.6-0.63s0.59,0.26,0.59,0.63c0,0.36-0.23,0.63-0.6,0.63
			C50.82,11.66,50.57,11.39,50.57,11.03z"/>
	</g>
	<g>
		<g>
			<path class="st9" d="M3.48,11.66L2.69,9.03C2.54,8.54,2.4,8.08,2.26,7.66S2.03,6.97,1.99,6.86s-0.09-0.2-0.14-0.25
				S1.74,6.52,1.68,6.5s-0.22-0.04-0.5-0.08L1.14,6.38V6.14l0.05-0.05C1.47,6.11,1.91,6.13,2.5,6.13c0.64,0,1.12-0.01,1.44-0.04
				l0.05,0.05v0.24L3.95,6.42c-0.43,0-0.68,0.03-0.76,0.07S3.07,6.6,3.07,6.69s0.06,0.33,0.17,0.72L3.78,9.3
				c0.09,0.29,0.2,0.63,0.33,1.03c0.11-0.25,0.25-0.59,0.45-1.02l0.86-1.93C5.62,6.92,5.81,6.46,5.99,6h0.29L6.8,7.42l0.67,1.7
				L8,10.4l0.44-1.15C8.69,8.59,8.89,8.04,9.03,7.6s0.21-0.72,0.21-0.85S9.2,6.54,9.11,6.5S8.8,6.44,8.42,6.42L8.37,6.38V6.13
				l0.05-0.05c0.45,0.03,0.83,0.04,1.14,0.04c0.39,0,0.76-0.01,1.1-0.04l0.05,0.05v0.24l-0.05,0.05c-0.21,0.01-0.35,0.03-0.43,0.07
				s-0.16,0.13-0.26,0.28S9.74,7.24,9.54,7.7L8.96,9.07L8.7,9.73l-0.42,1.09C8.15,11.16,8.06,11.44,8,11.66H7.45l-0.28-0.73
				L5.83,7.57L5.27,8.78l-0.65,1.45l-0.57,1.42H3.48z"/>
			<path class="st10" d="M11.83,4.09l0.64-0.76c0.38-0.43,0.9-0.66,1.57-0.66c1.18,0,1.92,0.81,1.92,1.78
				c0,0.39-0.14,0.74-0.38,1.02c-0.21,0.21-0.69,0.62-1.01,0.84c1.15,0.24,2.03,1.06,2.03,2.09c0,2.23-2.58,3.31-3.54,3.31
				c-0.56,0-1.06-0.28-1.2-0.41c-0.17-0.17-0.25-0.29-0.25-0.45c0-0.21,0.15-0.36,0.28-0.45c0.08-0.06,0.17-0.06,0.25,0
				c0.34,0.35,0.91,0.73,1.65,0.73c0.97,0,1.81-0.6,1.81-2.23c0-1.48-1.08-1.93-1.88-1.93c-0.32,0-0.64,0.07-0.83,0.14l-0.06-0.21
				C14.31,6.43,15,5.9,15,4.82c0-0.95-0.63-1.44-1.39-1.44c-0.78,0-1.19,0.36-1.64,0.88L11.83,4.09z"/>
			<path class="st9" d="M17.94,9.82h0.25l0.05,0.05c0.01,0.33,0.03,0.61,0.06,0.84c0.12,0.18,0.33,0.33,0.63,0.45
				s0.59,0.17,0.88,0.17c0.41,0,0.75-0.11,0.99-0.33s0.37-0.49,0.37-0.8c0-0.17-0.04-0.31-0.14-0.44c-0.09-0.12-0.23-0.22-0.41-0.3
				s-0.51-0.17-0.98-0.28c-0.4-0.09-0.68-0.17-0.84-0.22S18.5,8.82,18.35,8.7s-0.26-0.28-0.34-0.46s-0.12-0.38-0.12-0.6
				c0-0.52,0.21-0.94,0.62-1.26s0.93-0.47,1.56-0.47c0.26,0,0.55,0.04,0.86,0.11c0.31,0.07,0.54,0.14,0.7,0.21l0.05,0.08
				c-0.03,0.16-0.05,0.57-0.06,1.23l-0.05,0.05h-0.23l-0.05-0.05c-0.02-0.24-0.04-0.41-0.06-0.5s-0.1-0.2-0.21-0.31
				c-0.11-0.11-0.27-0.21-0.48-0.28s-0.43-0.11-0.66-0.11c-0.24,0-0.44,0.04-0.6,0.11s-0.29,0.18-0.39,0.32s-0.15,0.32-0.15,0.52
				c0,0.15,0.03,0.28,0.09,0.4s0.15,0.21,0.28,0.28s0.26,0.12,0.39,0.16l0.64,0.16c0.55,0.13,0.94,0.25,1.17,0.35
				s0.42,0.25,0.55,0.44s0.19,0.44,0.19,0.72c0,0.54-0.22,1-0.67,1.39c-0.45,0.39-1.02,0.58-1.72,0.58c-0.25,0-0.55-0.03-0.92-0.08
				s-0.68-0.12-0.93-0.18l-0.03-0.08l0.06-0.39c0.02-0.12,0.03-0.24,0.04-0.37s0.01-0.38,0.01-0.78L17.94,9.82z"/>
			<path class="st9" d="M22.7,6.95V6.79l0.04-0.06c0.37-0.14,0.66-0.26,0.89-0.38c0-1.02-0.01-1.61-0.04-1.78
				c0.4-0.14,0.73-0.29,0.99-0.45l0.14,0.12c-0.04,0.25-0.09,0.96-0.14,2.14c0.2,0,0.41,0.01,0.63,0.01c0.46,0,0.79-0.01,0.99-0.04
				l0.04,0.04l-0.11,0.49l-0.05,0.05c-0.2,0-0.42-0.01-0.66-0.01c-0.22,0-0.5,0-0.84,0.01l-0.04,2.38c0,0.55,0.01,0.91,0.04,1.08
				s0.1,0.3,0.21,0.4s0.29,0.14,0.51,0.14c0.26,0,0.5-0.07,0.73-0.21l0.14,0.21c-0.09,0.07-0.32,0.26-0.67,0.59
				c-0.2,0.09-0.41,0.14-0.62,0.14c-0.88,0-1.32-0.43-1.32-1.28c0-0.31,0.01-0.58,0.02-0.8c0-0.07,0.01-0.13,0.01-0.21V6.97h-0.24
				c-0.18,0-0.38,0.01-0.6,0.02L22.7,6.95z"/>
			<path class="st9" d="M28.37,5.96l0.11,0.08c-0.04,0.51-0.06,1.16-0.06,1.95v1.37c0,0.5,0.04,0.85,0.11,1.04s0.21,0.34,0.4,0.45
				S29.34,11,29.6,11c0.29,0,0.54-0.06,0.78-0.17s0.43-0.27,0.59-0.47s0.25-0.34,0.27-0.41s0.04-0.27,0.05-0.59L31.3,8.7V8.07
				c0-0.16-0.01-0.37-0.02-0.64S31.25,7,31.24,6.93S31.2,6.83,31.15,6.8S31,6.75,30.85,6.75l-0.49-0.01L30.3,6.7V6.45l0.05-0.05
				c0.75-0.09,1.38-0.24,1.89-0.44l0.11,0.08c-0.04,0.51-0.06,1.16-0.06,1.95v1.03c0,0.06,0.01,0.54,0.03,1.44
				c0.01,0.33,0.03,0.53,0.06,0.61s0.08,0.12,0.14,0.15s0.23,0.04,0.52,0.04h0.16l0.05,0.05v0.23l-0.05,0.05
				c-0.55-0.03-0.92-0.05-1.11-0.05c-0.24,0-0.51,0.01-0.83,0.04l-0.05-0.05c0.02-0.4,0.04-0.74,0.05-1.01
				c-0.25,0.19-0.53,0.45-0.84,0.77c-0.12,0.12-0.29,0.22-0.52,0.3s-0.48,0.12-0.77,0.12c-0.44,0-0.78-0.07-1.02-0.21
				s-0.42-0.33-0.52-0.57s-0.15-0.67-0.15-1.26l0.01-0.46V8.07c0-0.16-0.01-0.37-0.02-0.64S27.39,7,27.38,6.93s-0.04-0.11-0.09-0.14
				s-0.15-0.04-0.3-0.04l-0.49-0.01L26.44,6.7V6.45l0.05-0.05C27.23,6.31,27.86,6.17,28.37,5.96z"/>
			<path class="st9" d="M37.53,3.6V3.35l0.05-0.05c0.75-0.09,1.38-0.23,1.89-0.43l0.11,0.07c-0.04,0.45-0.06,1.35-0.06,2.7v3.84
				c0,0.39,0.01,0.74,0.02,1.03s0.04,0.47,0.07,0.52s0.09,0.1,0.17,0.13s0.31,0.07,0.68,0.1l0.05,0.05v0.22l-0.05,0.05
				c-0.42-0.03-0.75-0.04-0.98-0.04c-0.21,0-0.51,0.01-0.9,0.04l-0.06-0.06c0.01-0.38,0.02-0.65,0.02-0.8c0-0.02,0-0.09,0.01-0.22
				c-0.21,0.16-0.43,0.33-0.64,0.52c-0.32,0.28-0.52,0.46-0.62,0.53c-0.18,0.09-0.44,0.13-0.77,0.13c-0.54,0-1-0.13-1.37-0.4
				s-0.65-0.6-0.81-1.02S34.07,9.44,34.07,9c0-0.44,0.08-0.87,0.25-1.27s0.4-0.71,0.71-0.89s0.64-0.38,1-0.58s0.72-0.3,1.08-0.3
				c0.5,0,0.97,0.12,1.42,0.37L38.5,5.01c-0.01-0.45-0.02-0.77-0.04-0.95c-0.02-0.18-0.04-0.28-0.06-0.32s-0.06-0.06-0.12-0.07
				S38,3.65,37.58,3.65L37.53,3.6z M38.53,7.32c-0.24-0.27-0.51-0.48-0.81-0.63s-0.59-0.22-0.89-0.22c-0.33,0-0.63,0.09-0.92,0.27
				s-0.49,0.44-0.61,0.79s-0.19,0.73-0.19,1.14c0,0.68,0.17,1.23,0.52,1.65s0.78,0.62,1.3,0.62c0.29,0,0.54-0.07,0.76-0.2
				s0.4-0.31,0.54-0.53s0.23-0.45,0.25-0.67s0.04-0.63,0.04-1.22V7.32z"/>
			<path class="st9" d="M43.1,5.96l0.11,0.08c-0.04,0.51-0.06,1.16-0.06,1.95v1.32c0,0.09,0.01,0.36,0.02,0.83s0.03,0.74,0.05,0.82
				s0.04,0.13,0.08,0.17s0.08,0.06,0.13,0.07s0.26,0.03,0.63,0.05l0.05,0.05v0.25l-0.05,0.05c-0.49-0.03-0.96-0.05-1.41-0.05
				c-0.45,0-0.92,0.02-1.41,0.05l-0.05-0.05v-0.25l0.05-0.05c0.38-0.02,0.59-0.04,0.64-0.05s0.09-0.04,0.13-0.07
				s0.06-0.09,0.08-0.17s0.03-0.33,0.05-0.76s0.03-0.75,0.03-0.97V8.07c0-0.16-0.01-0.37-0.02-0.64S42.11,7,42.11,6.93
				s-0.04-0.11-0.09-0.14s-0.15-0.04-0.3-0.04l-0.49-0.01L41.16,6.7V6.45l0.05-0.05C41.96,6.31,42.59,6.17,43.1,5.96z M42.6,3.34
				c0.18,0,0.34,0.06,0.47,0.19S43.26,3.82,43.26,4c0,0.18-0.06,0.33-0.19,0.46s-0.29,0.19-0.47,0.19c-0.18,0-0.33-0.06-0.47-0.19
				s-0.2-0.28-0.2-0.47c0-0.18,0.07-0.34,0.2-0.47S42.42,3.34,42.6,3.34z"/>
			<path class="st9" d="M44.8,8.86c0-0.46,0.1-0.91,0.29-1.34s0.52-0.8,1-1.12s1.04-0.47,1.69-0.47c0.82,0,1.49,0.26,2,0.78
				s0.77,1.18,0.77,2c0,0.89-0.3,1.63-0.89,2.21s-1.31,0.87-2.14,0.87c-0.55,0-1.04-0.15-1.46-0.44s-0.75-0.66-0.95-1.08
				S44.8,9.36,44.8,8.86z M45.91,8.46c0,0.55,0.07,1.04,0.21,1.47s0.36,0.78,0.67,1.04s0.65,0.39,1.04,0.39
				c0.46,0,0.84-0.18,1.14-0.55s0.45-0.92,0.45-1.65c0-0.83-0.16-1.51-0.49-2.04s-0.8-0.8-1.41-0.8c-0.51,0-0.9,0.18-1.19,0.55
				S45.91,7.77,45.91,8.46z"/>
			<path class="st11" d="M50.57,11.03c0-0.37,0.25-0.63,0.6-0.63s0.59,0.26,0.59,0.63c0,0.36-0.23,0.63-0.6,0.63
				C50.82,11.66,50.57,11.39,50.57,11.03z"/>
		</g>
	</g>
</g>
<path d="M19.17,13.15c-2.62,0.11-4.14,0.17-6.44,0.38c-1.71,0.16-1.7,0.2-2.4,0.25c-5.35,0.37-9.09-2.14-9.35-1.64
	c-0.2,0.39,1.87,2.47,4.67,3.03c1.33,0.27,2.46,0.1,4.67-0.25c2.17-0.34,3.71-0.78,4.41-0.97c5.54-1.48,10.5-1.02,10.5-1.05
	C25.23,12.88,22.33,13.02,19.17,13.15z"/>
</svg>
